<mxfile host="app.diagrams.net" modified="2022-09-20T12:37:44.158Z" agent="5.0 (Macintosh; Intel Mac OS X 10_14_6) AppleWebKit/537.36 (KHTML, like Gecko) Chrome/105.0.0.0 Safari/537.36" etag="3d9h2zOQ1eUlfzE2WceY" version="20.3.1" type="github">
  <diagram id="pBT2CB8r8I2t-ZYhLlkf" name="第 1 页">
    <mxGraphModel dx="2047" dy="741" grid="1" gridSize="10" guides="1" tooltips="1" connect="1" arrows="1" fold="1" page="1" pageScale="1" pageWidth="827" pageHeight="1169" math="0" shadow="0">
      <root>
        <mxCell id="0" />
        <mxCell id="1" parent="0" />
        <mxCell id="ZZRsPUV1tWeSpyz7VWPF-5" style="rounded=0;orthogonalLoop=1;jettySize=auto;html=1;entryX=0.5;entryY=0;entryDx=0;entryDy=0;exitX=0.25;exitY=1;exitDx=0;exitDy=0;" edge="1" parent="1" source="ZZRsPUV1tWeSpyz7VWPF-1" target="ZZRsPUV1tWeSpyz7VWPF-2">
          <mxGeometry relative="1" as="geometry" />
        </mxCell>
        <mxCell id="ZZRsPUV1tWeSpyz7VWPF-7" style="rounded=0;orthogonalLoop=1;jettySize=auto;html=1;entryX=0.5;entryY=0;entryDx=0;entryDy=0;" edge="1" parent="1" source="ZZRsPUV1tWeSpyz7VWPF-1" target="ZZRsPUV1tWeSpyz7VWPF-3">
          <mxGeometry relative="1" as="geometry" />
        </mxCell>
        <mxCell id="ZZRsPUV1tWeSpyz7VWPF-8" style="rounded=0;orthogonalLoop=1;jettySize=auto;html=1;exitX=0.75;exitY=1;exitDx=0;exitDy=0;" edge="1" parent="1" source="ZZRsPUV1tWeSpyz7VWPF-1" target="ZZRsPUV1tWeSpyz7VWPF-4">
          <mxGeometry relative="1" as="geometry" />
        </mxCell>
        <mxCell id="ZZRsPUV1tWeSpyz7VWPF-1" value="clkpool-icf-1-get-data" style="rounded=0;whiteSpace=wrap;html=1;" vertex="1" parent="1">
          <mxGeometry x="130" y="120" width="150" height="50" as="geometry" />
        </mxCell>
        <mxCell id="ZZRsPUV1tWeSpyz7VWPF-11" style="edgeStyle=none;rounded=0;orthogonalLoop=1;jettySize=auto;html=1;entryX=0.5;entryY=0;entryDx=0;entryDy=0;" edge="1" parent="1" source="ZZRsPUV1tWeSpyz7VWPF-2" target="ZZRsPUV1tWeSpyz7VWPF-9">
          <mxGeometry relative="1" as="geometry" />
        </mxCell>
        <mxCell id="ZZRsPUV1tWeSpyz7VWPF-15" style="edgeStyle=none;rounded=0;orthogonalLoop=1;jettySize=auto;html=1;exitX=0.75;exitY=1;exitDx=0;exitDy=0;entryX=0.5;entryY=0;entryDx=0;entryDy=0;" edge="1" parent="1" source="ZZRsPUV1tWeSpyz7VWPF-2" target="ZZRsPUV1tWeSpyz7VWPF-10">
          <mxGeometry relative="1" as="geometry" />
        </mxCell>
        <mxCell id="ZZRsPUV1tWeSpyz7VWPF-2" value="clkpool-icf-2-calculate_1" style="rounded=0;whiteSpace=wrap;html=1;" vertex="1" parent="1">
          <mxGeometry x="-150" y="280" width="150" height="50" as="geometry" />
        </mxCell>
        <mxCell id="ZZRsPUV1tWeSpyz7VWPF-25" style="edgeStyle=none;rounded=0;orthogonalLoop=1;jettySize=auto;html=1;entryX=0.5;entryY=0;entryDx=0;entryDy=0;" edge="1" parent="1" source="ZZRsPUV1tWeSpyz7VWPF-3" target="ZZRsPUV1tWeSpyz7VWPF-23">
          <mxGeometry relative="1" as="geometry" />
        </mxCell>
        <mxCell id="ZZRsPUV1tWeSpyz7VWPF-26" style="edgeStyle=none;rounded=0;orthogonalLoop=1;jettySize=auto;html=1;exitX=0.75;exitY=1;exitDx=0;exitDy=0;entryX=0.5;entryY=0;entryDx=0;entryDy=0;" edge="1" parent="1" source="ZZRsPUV1tWeSpyz7VWPF-3" target="ZZRsPUV1tWeSpyz7VWPF-24">
          <mxGeometry relative="1" as="geometry" />
        </mxCell>
        <mxCell id="ZZRsPUV1tWeSpyz7VWPF-3" value="clkpool-icf-2-calculate_2" style="rounded=0;whiteSpace=wrap;html=1;" vertex="1" parent="1">
          <mxGeometry x="130" y="280" width="150" height="50" as="geometry" />
        </mxCell>
        <mxCell id="ZZRsPUV1tWeSpyz7VWPF-31" style="edgeStyle=none;rounded=0;orthogonalLoop=1;jettySize=auto;html=1;exitX=0.5;exitY=1;exitDx=0;exitDy=0;entryX=0.5;entryY=0;entryDx=0;entryDy=0;" edge="1" parent="1" source="ZZRsPUV1tWeSpyz7VWPF-4" target="ZZRsPUV1tWeSpyz7VWPF-30">
          <mxGeometry relative="1" as="geometry" />
        </mxCell>
        <mxCell id="ZZRsPUV1tWeSpyz7VWPF-4" value="clkpool-icf-2-calculate_3&lt;br&gt;（禁用）" style="rounded=0;whiteSpace=wrap;html=1;" vertex="1" parent="1">
          <mxGeometry x="390" y="280" width="150" height="50" as="geometry" />
        </mxCell>
        <mxCell id="ZZRsPUV1tWeSpyz7VWPF-9" value="clkpool-icf-3-filter-upload_1" style="rounded=0;whiteSpace=wrap;html=1;" vertex="1" parent="1">
          <mxGeometry x="-250" y="450" width="150" height="50" as="geometry" />
        </mxCell>
        <mxCell id="ZZRsPUV1tWeSpyz7VWPF-10" value="clkpool-icf-3-c3filter-upload_1" style="rounded=0;whiteSpace=wrap;html=1;" vertex="1" parent="1">
          <mxGeometry x="-80" y="450" width="150" height="50" as="geometry" />
        </mxCell>
        <mxCell id="ZZRsPUV1tWeSpyz7VWPF-21" style="edgeStyle=none;rounded=0;orthogonalLoop=1;jettySize=auto;html=1;exitX=0.5;exitY=1;exitDx=0;exitDy=0;entryX=0.833;entryY=-0.04;entryDx=0;entryDy=0;entryPerimeter=0;" edge="1" parent="1" source="ZZRsPUV1tWeSpyz7VWPF-19" target="ZZRsPUV1tWeSpyz7VWPF-10">
          <mxGeometry relative="1" as="geometry" />
        </mxCell>
        <mxCell id="ZZRsPUV1tWeSpyz7VWPF-22" style="edgeStyle=none;rounded=0;orthogonalLoop=1;jettySize=auto;html=1;exitX=0.25;exitY=1;exitDx=0;exitDy=0;entryX=0.7;entryY=-0.04;entryDx=0;entryDy=0;entryPerimeter=0;" edge="1" parent="1" source="ZZRsPUV1tWeSpyz7VWPF-19" target="ZZRsPUV1tWeSpyz7VWPF-9">
          <mxGeometry relative="1" as="geometry" />
        </mxCell>
        <mxCell id="ZZRsPUV1tWeSpyz7VWPF-27" style="edgeStyle=none;rounded=0;orthogonalLoop=1;jettySize=auto;html=1;entryX=0.6;entryY=0;entryDx=0;entryDy=0;entryPerimeter=0;exitX=0.5;exitY=1;exitDx=0;exitDy=0;" edge="1" parent="1" source="ZZRsPUV1tWeSpyz7VWPF-19" target="ZZRsPUV1tWeSpyz7VWPF-24">
          <mxGeometry relative="1" as="geometry" />
        </mxCell>
        <mxCell id="ZZRsPUV1tWeSpyz7VWPF-28" style="edgeStyle=none;rounded=0;orthogonalLoop=1;jettySize=auto;html=1;entryX=0.687;entryY=-0.02;entryDx=0;entryDy=0;entryPerimeter=0;" edge="1" parent="1" source="ZZRsPUV1tWeSpyz7VWPF-19" target="ZZRsPUV1tWeSpyz7VWPF-23">
          <mxGeometry relative="1" as="geometry" />
        </mxCell>
        <mxCell id="ZZRsPUV1tWeSpyz7VWPF-19" value="selectPoolSku2JssJob" style="rounded=0;whiteSpace=wrap;html=1;" vertex="1" parent="1">
          <mxGeometry x="607" y="280" width="150" height="50" as="geometry" />
        </mxCell>
        <mxCell id="ZZRsPUV1tWeSpyz7VWPF-23" value="clkpool-icf-3-filter-upload_2" style="rounded=0;whiteSpace=wrap;html=1;" vertex="1" parent="1">
          <mxGeometry x="100" y="450" width="150" height="50" as="geometry" />
        </mxCell>
        <mxCell id="ZZRsPUV1tWeSpyz7VWPF-24" value="clkpool-icf-3-c3filter-upload_2" style="rounded=0;whiteSpace=wrap;html=1;" vertex="1" parent="1">
          <mxGeometry x="300" y="450" width="150" height="50" as="geometry" />
        </mxCell>
        <mxCell id="ZZRsPUV1tWeSpyz7VWPF-30" value="clkpool-icf-3-filter-upload_3&lt;br&gt;（禁用）" style="rounded=0;whiteSpace=wrap;html=1;" vertex="1" parent="1">
          <mxGeometry x="520" y="450" width="150" height="50" as="geometry" />
        </mxCell>
      </root>
    </mxGraphModel>
  </diagram>
</mxfile>
